<?xml version="1.0" encoding="iso-8859-1"?>
<svg fill="#000000" version="1.1" id="Layer_1" xmlns="http://www.w3.org/2000/svg" xmlns:xlink="http://www.w3.org/1999/xlink" 
	 viewBox="0 0 452.872 452.872" xml:space="preserve">
<g>
	<g>
		<g>
			<polygon points="194.238,452.872 345.248,452.872 269.748,415.832 			"/>
			<path d="M303.888,177.632h60.59c0.149,0,0.3,0.02,0.45,0.02l24.39-32.7h-65.35L303.888,177.632z"/>
			<polygon points="246.438,271.162 270.808,303.832 353.008,193.632 294.058,193.632 			"/>
			<polygon points="275.288,193.632 188.608,193.632 236.138,257.362 			"/>
			<path d="M402.878,1.182c-3.76-2.31-8.69-1.13-11,2.63l-76.86,125.14h18.77l71.72-116.76
				C407.818,8.422,406.638,3.502,402.878,1.182z"/>
			<path d="M178.958,177.632h106.15l20.08-32.68h-152.89l24.58,32.96C177.548,177.742,178.238,177.632,178.958,177.632z"/>
			<path d="M189.338,109.482c-1.73-3.01-3.71-5.78-5.87-8.34l-27.81,27.81h40.64C195.178,122.132,192.818,115.512,189.338,109.482z"
				/>
			<path d="M165.608,189.562l-30.14-40.42l-33.14,33.14c6.38,5.4,13.93,9.37,22.25,11.6
				C138.458,197.592,152.908,196.052,165.608,189.562z"/>
			<path d="M83.868,123.362c-3.98,14.86-1.94,30.37,5.75,43.69c0.65,1.12,1.34,2.2,2.05,3.26l33.36-33.36l-32.3-32.31
				C88.718,110.222,85.698,116.532,83.868,123.362z"/>
			<path d="M110.698,88.402c-2.44,1.41-4.74,2.97-6.91,4.68l32.56,32.55l35.18-35.18C153.868,78.652,130.298,77.082,110.698,88.402z
				"/>
			<path d="M139.598,211.872c-6.39,0-12.82-0.84-19.16-2.54c-18.98-5.09-34.85-17.26-44.67-34.28
				c-20.29-35.13-8.21-80.22,26.93-100.5c35.13-20.29,80.21-8.21,100.5,26.93c4.89,8.46,8.03,17.84,9.27,27.47h19.87
				c-1.32-13.08-5.42-25.87-12.04-37.34c-12.47-21.59-32.59-37.03-56.67-43.48c-24.07-6.45-49.22-3.14-70.81,9.32
				c-44.56,25.73-59.88,82.91-34.15,127.47c25.731,44.56,82.91,59.88,127.47,34.16c0.36-0.21,0.73-0.38,1.1-0.52l-11.96-16.03
				C164.208,208.702,151.978,211.872,139.598,211.872z"/>
			<rect x="261.743" y="319.832" width="16" height="80"/>
		</g>
	</g>
</g>
</svg>